<?xml version="1.0" encoding="UTF-8" standalone="no"?>
<!-- Generator: Adobe Illustrator 25.0.1, SVG Export Plug-In . SVG Version: 6.00 Build 0)  -->

<svg
   version="1.0"
   id="Capa_1"
   x="0px"
   y="0px"
   viewBox="0 0 299.99999 300"
   xml:space="preserve"
   width="300"
   height="300"
   xmlns="http://www.w3.org/2000/svg"
   xmlns:svg="http://www.w3.org/2000/svg"><defs
   id="defs101">
	
	

		
		
		
		
		
		
		
		
		
		
	</defs>
<style
   type="text/css"
   id="style2">
	.st0{fill:#6F4E9B;}
	.st1{fill:#FFFFFF;}
	.st2{fill:#AA93C5;}
	.st3{fill:#37276B;}
	.st4{fill:#727272;}
	.st5{fill:#0B9EDA;}
	.st6{fill:#E5232F;}
	.st7{fill:#FAB617;}
</style>

<g
   id="g18"
   transform="translate(-173.29999,-38.600002)">
		<circle
   class="st0"
   cx="323.29999"
   cy="185.3"
   r="146.5"
   id="circle6" />
		<path
   class="st1"
   d="m 386.6,250.5 c 33.5,-7.3 57.1,-26.6 67.5,-38.9 10.4,-12.3 4.2,-22.4 4.2,-22.4 -25.1,-6.2 -62.1,-25.5 -91,-44 -28.9,-18.5 -19.7,-63.6 -19.7,-63.6 -76.9,42.8 -89.1,135.9 -89.1,135.9 44,2.3 55,20.2 55,20.2 -80.2,0 -102.4,22.3 -109.9,32 3.3,4.7 0,11 3.7,15.4 26.2,31.1 69.2,53.3 112.5,53.3 16.8,0 35.4,-3.7 51.4,-10.9 6.5,-2.9 12,-8.4 17.7,-11.3 -33.7,2.8 -38.5,-18.9 -39.8,-25.3 -1.5,-7.6 3.9,-33.1 37.5,-40.4 z"
   id="path8" />
		<path
   class="st2"
   d="m 459.5,192.3 c -0.5,-1.9 -1.2,-3.1 -1.2,-3.1 -25.1,-6.2 -62.1,-25.5 -91,-44 -28.9,-18.5 -19.7,-63.6 -19.7,-63.6 -76.9,42.8 -89.1,135.9 -89.1,135.9 1.9,-0.2 19.7,-18.7 57.5,-15.6 37.8,3.1 63.6,22.4 89.8,21.2 21.9,-0.9 45,-16.8 53.7,-30.8 z"
   id="path10" />
		<path
   class="st3"
   d="m 352.2,155 -6.7,9.2 c 0,0 -13.8,-7.1 -13.8,-8.6 0,-1.5 20.5,-0.6 20.5,-0.6 z"
   id="path12" />
		<path
   class="st3"
   d="m 367.3,145.2 26.6,-29.7 -46.1,-1 c 2.4,11.4 7.8,23.3 19.5,30.7 z"
   id="path14" />
		<path
   class="st3"
   d="m 347.6,81.6 c 0,0 -153.4,47 -167.4,135.4 4.3,19.3 12.3,37.2 23.4,52.9 7.4,-9.7 29.7,-32 109.9,-32 0,0 -11,-17.9 -55,-20.2 0,-0.2 12.2,-93.3 89.1,-136.1 z"
   id="path16" />
	</g>
</svg>
