<?xml version="1.0" encoding="UTF-8" standalone="no"?>
<!-- Generator: Adobe Illustrator 25.0.1, SVG Export Plug-In . SVG Version: 6.00 Build 0)  -->

<svg
   version="1.0"
   id="Capa_1"
   x="0px"
   y="0px"
   viewBox="0 0 418.99999 356"
   xml:space="preserve"
   width="419"
   height="356"
   xmlns="http://www.w3.org/2000/svg"
   xmlns:svg="http://www.w3.org/2000/svg"><defs
   id="defs101">
	
	

		
		
		
		
		
		
		
		
		
		
	</defs>
<style
   type="text/css"
   id="style2">
	.st0{fill:#6F4E9B;}
	.st1{fill:#FFFFFF;}
	.st2{fill:#AA93C5;}
	.st3{fill:#37276B;}
	.st4{fill:#727272;}
	.st5{fill:#0B9EDA;}
	.st6{fill:#E5232F;}
	.st7{fill:#FAB617;}
</style>

<g
   id="g18"
   transform="translate(-137.55,-38.550002)">
		<circle
   class="st0"
   cx="323.29999"
   cy="185.3"
   r="146.5"
   id="circle6" />
		<path
   class="st1"
   d="m 386.6,250.5 c 33.5,-7.3 57.1,-26.6 67.5,-38.9 10.4,-12.3 4.2,-22.4 4.2,-22.4 -25.1,-6.2 -62.1,-25.5 -91,-44 -28.9,-18.5 -19.7,-63.6 -19.7,-63.6 -76.9,42.8 -89.1,135.9 -89.1,135.9 44,2.3 55,20.2 55,20.2 -80.2,0 -102.4,22.3 -109.9,32 3.3,4.7 0,11 3.7,15.4 26.2,31.1 69.2,53.3 112.5,53.3 16.8,0 35.4,-3.7 51.4,-10.9 6.5,-2.9 12,-8.4 17.7,-11.3 -33.7,2.8 -38.5,-18.9 -39.8,-25.3 -1.5,-7.6 3.9,-33.1 37.5,-40.4 z"
   id="path8" />
		<path
   class="st2"
   d="m 459.5,192.3 c -0.5,-1.9 -1.2,-3.1 -1.2,-3.1 -25.1,-6.2 -62.1,-25.5 -91,-44 -28.9,-18.5 -19.7,-63.6 -19.7,-63.6 -76.9,42.8 -89.1,135.9 -89.1,135.9 1.9,-0.2 19.7,-18.7 57.5,-15.6 37.8,3.1 63.6,22.4 89.8,21.2 21.9,-0.9 45,-16.8 53.7,-30.8 z"
   id="path10" />
		<path
   class="st3"
   d="m 352.2,155 -6.7,9.2 c 0,0 -13.8,-7.1 -13.8,-8.6 0,-1.5 20.5,-0.6 20.5,-0.6 z"
   id="path12" />
		<path
   class="st3"
   d="m 367.3,145.2 26.6,-29.7 -46.1,-1 c 2.4,11.4 7.8,23.3 19.5,30.7 z"
   id="path14" />
		<path
   class="st3"
   d="m 347.6,81.6 c 0,0 -153.4,47 -167.4,135.4 4.3,19.3 12.3,37.2 23.4,52.9 7.4,-9.7 29.7,-32 109.9,-32 0,0 -11,-17.9 -55,-20.2 0,-0.2 12.2,-93.3 89.1,-136.1 z"
   id="path16" />
	</g><path
   class="st5"
   d="m 79.95,339.45 c -14,0 -25.3,-11.4 -25.3,-25.3 0,-14 11.4,-25.3 25.3,-25.3 14,0 25.3,11.4 25.3,25.3 0.1,14 -11.3,25.3 -25.3,25.3 z m 0,-39.5 c -7.8,0 -14.2,6.4 -14.2,14.2 0,7.8 6.4,14.2 14.2,14.2 7.8,0 14.2,-6.4 14.2,-14.2 0,-7.8 -6.3,-14.2 -14.2,-14.2 z"
   id="path74" /><path
   class="st0"
   d="m 182.25,339.45 c -14,0 -25.3,-11.4 -25.3,-25.3 0,-14 11.4,-25.3 25.3,-25.3 14,0 25.3,11.4 25.3,25.3 0.1,14 -11.3,25.3 -25.3,25.3 z m 0,-39.5 c -7.8,0 -14.2,6.4 -14.2,14.2 0,7.8 6.4,14.2 14.2,14.2 7.8,0 14.2,-6.4 14.2,-14.2 0,-7.8 -6.3,-14.2 -14.2,-14.2 z"
   id="path76" /><path
   class="st5"
   d="m 38.35,320.35 c -2.3,4.7 -7.2,8 -12.8,8 -7.8,0 -14.2,-6.4 -14.2,-14.2 0,-7.8 6.4,-14.2 14.2,-14.2 5.7,0 10.7,3.4 12.9,8.3 h 11.7 c -2.7,-11.1 -12.7,-19.4 -24.6,-19.4 -14,0 -25.3,11.4 -25.3,25.3 0,14 11.4,25.3 25.3,25.3 11.8,0 21.7,-8.2 24.5,-19.1 z"
   id="path78" /><path
   class="st6"
   d="m 304.65,320.35 c -2.3,4.7 -7.2,8 -12.8,8 -7.8,0 -14.2,-6.4 -14.2,-14.2 0,-7.8 6.4,-14.2 14.2,-14.2 5.7,0 10.7,3.4 12.9,8.3 h 11.7 c -2.7,-11.1 -12.7,-19.4 -24.6,-19.4 -14,0 -25.3,11.4 -25.3,25.3 0,14 11.4,25.3 25.3,25.3 11.8,0 21.7,-8.2 24.5,-19.1 z"
   id="path80" /><path
   class="st6"
   d="m 262.45,314.15 c 0,-14 -11.4,-25.3 -25.3,-25.3 -14,0 -25.3,11.4 -25.3,25.3 0,14 11.4,25.3 25.3,25.3 5.2,0 10.1,-1.6 14.1,-4.3 v 3.8 h 11.1 v -22.4 c 0,-0.7 0.1,-1.5 0.1,-2.4 z m -25.3,14.2 c -7.8,0 -14.2,-6.4 -14.2,-14.2 0,-7.8 6.4,-14.2 14.2,-14.2 7.2,0 13.2,5.4 14.1,12.4 v 3.6 c -0.9,7 -6.9,12.4 -14.1,12.4 z"
   id="path82" /><path
   class="st7"
   d="m 385.85,340.05 v -28.6 c 0,-6 4.9,-10.9 10.9,-10.9 6,0 10.9,4.9 10.9,10.9 v 28.6 h 11.1 v -28.6 c 0,-12.1 -9.9,-22 -22,-22 -12.1,0 -22,9.9 -22,22 v 28.6 z"
   id="path84" /><g
   id="g90"
   transform="translate(-137.55,-38.550002)">
			<path
   class="st7"
   d="m 507.9,352.7 c 0,-14 -11.4,-25.3 -25.3,-25.3 -14,0 -25.3,11.4 -25.3,25.3 0,14 11.4,25.3 25.3,25.3 5.2,0 10.1,-1.6 14.1,-4.3 v 3.8 h 11.1 v -22.4 c 0,-0.7 0.1,-1.5 0.1,-2.4 z m -25.3,14.2 c -7.8,0 -14.2,-6.4 -14.2,-14.2 0,-7.8 6.4,-14.2 14.2,-14.2 7.2,0 13.2,5.4 14.1,12.4 v 3.6 c -0.9,7 -6.9,12.4 -14.1,12.4 z"
   id="path86" />
			<rect
   x="469.79999"
   y="313.39999"
   class="st7"
   width="25.6"
   height="10.4"
   id="rect88" />
		</g><path
   class="st5"
   d="m 141.55,289.05 h 11.1 v 44.3 c 0,12.4 -10.1,22.4 -22.4,22.4 h -14.4 v -11.1 h 14.4 c 6.2,0 11.3,-5.1 11.3,-11.3 z m -6.1,39.5 h -3.4 c -6.2,0 -11.3,-5.1 -11.3,-11.3 v -28.1 h -11.1 v 28.1 c 0,12.4 10.1,22.4 22.4,22.4 h 3.4 z"
   id="path92" />
</svg>
